<svg width="500" height="500" viewBox="0 0 500 500" fill="none" xmlns="http://www.w3.org/2000/svg">
<g id="Logo">
<path id="Rectangle 5" d="M257.949 406.178C235.389 444.637 163.126 415.776 163.126 415.776L168.141 303.797L244.822 276.504C244.822 276.504 280.508 367.719 257.949 406.178Z" fill="#2B2112"/>
<path id="Rectangle 4" d="M251.489 395.401C228.929 433.86 156.666 405 156.666 405L161.681 293.02L238.362 265.727C238.362 265.727 274.048 356.942 251.489 395.401Z" fill="#CB8112"/>
<path id="Rectangle 6" d="M261.018 99.309C288.313 64.0526 356.289 101.922 356.289 101.922L336.988 212.339L257.445 229.596C257.445 229.596 233.723 134.565 261.018 99.309Z" fill="#2B2112"/>
<path id="Rectangle 7" d="M266.046 110.823C293.341 75.567 361.317 113.436 361.317 113.436L342.017 223.854L262.473 241.111C262.473 241.111 238.751 146.08 266.046 110.823Z" fill="#CB8112"/>
<circle id="Ellipse 1" cx="250" cy="250" r="100" fill="#CB8112"/>
<g id="L">
<path d="M416.945 321.707C416.945 331.691 410.801 339.947 398.513 346.475C388.337 351.851 377.297 354.539 365.393 354.539C353.681 354.539 340.721 351.467 326.513 345.323C312.305 339.371 295.025 330.827 274.673 319.691C254.321 308.555 240.401 301.355 232.913 298.091C221.585 311.147 210.353 321.131 199.217 328.043C188.273 335.147 175.505 338.699 160.913 338.699C153.041 338.699 145.169 335.915 137.297 330.347C129.425 324.779 125.489 318.251 125.489 310.763C125.489 300.203 130.769 292.235 141.329 286.859C149.777 282.443 159.857 280.235 171.569 280.235C183.281 280.235 198.065 283.019 215.921 288.587C221.873 280.523 228.113 270.347 234.641 258.059C233.297 258.251 231.185 258.347 228.305 258.347C187.985 258.347 167.825 244.043 167.825 215.435C167.825 200.267 175.889 188.363 192.017 179.723C192.785 179.147 193.457 178.859 194.033 178.859C194.801 178.859 195.185 179.147 195.185 179.723C195.185 180.107 195.089 180.395 194.897 180.587C182.801 185.003 176.753 194.219 176.753 208.235C176.753 222.059 183.473 233.291 196.913 241.931C208.433 249.419 221.777 253.259 236.945 253.451C241.169 245.579 248.465 230.507 258.833 208.235C269.201 185.963 277.937 169.547 285.041 158.987C301.745 134.027 319.601 121.547 338.609 121.547C340.721 121.547 341.777 121.835 341.777 122.411C341.777 122.987 340.721 123.275 338.609 123.275C320.369 123.275 302.993 136.139 286.481 161.867C281.105 170.507 273.041 186.347 262.289 209.387C251.537 232.235 244.433 246.923 240.977 253.451C247.121 253.451 253.361 252.875 259.697 251.723C261.041 250.187 263.825 244.427 268.049 234.443C271.697 224.651 274.097 218.507 275.249 216.011C302.129 154.571 332.081 123.851 365.105 123.851C371.825 123.851 377.201 126.155 381.233 130.763C385.265 135.371 387.281 141.227 387.281 148.331C387.281 176.939 355.985 207.275 293.393 239.339C285.329 243.563 279.953 246.251 277.265 247.403C274.769 248.363 273.041 249.131 272.081 249.707C270.545 250.475 267.569 251.819 263.153 253.739C261.617 256.427 257.873 262.379 251.921 271.595C246.161 280.619 240.977 288.203 236.369 294.347L310.385 323.147C340.721 334.667 365.489 340.427 384.689 340.427C404.081 340.427 413.777 334.955 413.777 324.011C413.777 316.907 410.513 308.363 403.985 298.379C407.441 300.491 410.321 303.851 412.625 308.459C415.505 313.259 416.945 317.675 416.945 321.707ZM384.113 144.299C384.113 140.075 382.385 137.003 378.929 135.083C375.665 133.163 371.729 132.203 367.121 132.203C345.617 132.203 318.929 159.563 287.057 214.283C277.649 230.411 270.545 242.219 265.745 249.707C284.369 243.179 307.793 228.491 336.017 205.643C368.081 179.723 384.113 159.275 384.113 144.299ZM164.657 322.283C161.969 322.283 160.625 321.899 160.625 321.131C160.625 320.555 161.969 320.267 164.657 320.267C182.513 320.267 198.929 310.475 213.905 290.891C196.241 285.131 182.417 282.251 172.433 282.251C162.641 282.251 153.329 284.267 144.497 288.299C135.665 292.331 131.249 298.187 131.249 305.867C131.249 313.739 134.993 320.075 142.481 324.875C148.433 329.099 156.017 331.211 165.233 331.211C174.449 331.211 186.065 327.563 200.081 320.267C214.097 312.971 223.985 305.291 229.745 297.227C227.057 295.499 222.833 293.675 217.073 291.755C201.329 312.107 183.857 322.283 164.657 322.283ZM257.681 255.755C248.657 256.907 242.321 257.579 238.673 257.771C232.529 268.907 226.001 279.467 219.089 289.451C221.009 290.219 225.329 291.563 232.049 293.483C234.737 290.795 243.281 278.219 257.681 255.755Z" fill="black"/>
<path d="M398.513 346.475L399.914 349.127L399.92 349.124L398.513 346.475ZM326.513 345.323L327.704 342.569L327.688 342.562L327.672 342.556L326.513 345.323ZM274.673 319.691L273.233 322.322L274.673 319.691ZM232.913 298.091L234.112 295.341L232.091 294.46L230.647 296.125L232.913 298.091ZM199.217 328.043L197.635 325.494L197.609 325.51L197.583 325.526L199.217 328.043ZM141.329 286.859L142.69 289.532L142.704 289.525L142.719 289.517L141.329 286.859ZM215.921 288.587L215.028 291.451L217.066 292.086L218.335 290.368L215.921 288.587ZM234.641 258.059L237.29 259.466L240.059 254.254L234.217 255.089L234.641 258.059ZM192.017 179.723L193.434 182.367L193.635 182.259L193.817 182.123L192.017 179.723ZM194.897 180.587L195.926 183.405L196.549 183.177L197.018 182.708L194.897 180.587ZM196.913 241.931L198.548 239.415L198.542 239.411L198.535 239.407L196.913 241.931ZM236.945 253.451L236.907 256.45L238.728 256.473L239.588 254.869L236.945 253.451ZM258.833 208.235L261.553 209.501L258.833 208.235ZM285.041 158.987L287.53 160.661L287.534 160.655L285.041 158.987ZM286.481 161.867L283.956 160.246L283.945 160.264L283.934 160.282L286.481 161.867ZM262.289 209.387L265.003 210.664L265.007 210.655L262.289 209.387ZM240.977 253.451L238.326 252.047L235.994 256.451H240.977V253.451ZM259.697 251.723L260.234 254.674L261.265 254.487L261.955 253.698L259.697 251.723ZM268.049 234.443L270.812 235.612L270.837 235.551L270.86 235.49L268.049 234.443ZM275.249 216.011L277.973 217.268L277.985 217.241L277.997 217.213L275.249 216.011ZM381.233 130.763L378.975 132.738V132.738L381.233 130.763ZM293.393 239.339L292.025 236.669L292.013 236.675L292.001 236.681L293.393 239.339ZM277.265 247.403L278.342 250.203L278.395 250.182L278.447 250.16L277.265 247.403ZM272.081 249.707L273.423 252.39L273.526 252.338L273.624 252.279L272.081 249.707ZM263.153 253.739L261.957 250.987L261.043 251.385L260.548 252.25L263.153 253.739ZM251.921 271.595L249.401 269.967L249.396 269.974L249.392 269.981L251.921 271.595ZM236.369 294.347L233.969 292.547L231.597 295.709L235.281 297.142L236.369 294.347ZM310.385 323.147L309.297 325.942L309.308 325.947L309.32 325.951L310.385 323.147ZM403.985 298.379L405.549 295.819L401.474 300.02L403.985 298.379ZM412.625 308.459L409.942 309.8L409.993 309.903L410.052 310.002L412.625 308.459ZM378.929 135.083L377.408 137.668L377.44 137.687L377.472 137.705L378.929 135.083ZM287.057 214.283L289.648 215.794L289.649 215.793L287.057 214.283ZM265.745 249.707L263.219 248.088L258.52 255.418L266.737 252.538L265.745 249.707ZM336.017 205.643L334.131 203.31L334.129 203.311L336.017 205.643ZM213.905 290.891L216.288 292.713L218.859 289.351L214.835 288.038L213.905 290.891ZM144.497 288.299L143.251 285.57L144.497 288.299ZM142.481 324.875L144.217 322.428L144.159 322.387L144.1 322.349L142.481 324.875ZM200.081 320.267L198.696 317.606L200.081 320.267ZM229.745 297.227L232.186 298.97L234.017 296.407L231.367 294.703L229.745 297.227ZM217.073 291.755L218.022 288.909L216.002 288.236L214.7 289.919L217.073 291.755ZM257.681 255.755L260.207 257.374L263.673 251.965L257.301 252.779L257.681 255.755ZM238.673 257.771L238.515 254.775L236.851 254.862L236.046 256.321L238.673 257.771ZM219.089 289.451L216.622 287.743L214.48 290.838L217.975 292.236L219.089 289.451ZM232.049 293.483L231.225 296.367L232.922 296.852L234.17 295.604L232.049 293.483ZM413.945 321.707C413.945 330.159 408.852 337.585 397.105 343.825L399.92 349.124C412.75 342.308 419.945 333.222 419.945 321.707H413.945ZM397.112 343.822C387.383 348.962 376.826 351.539 365.393 351.539V357.539C377.768 357.539 389.291 354.739 399.914 349.127L397.112 343.822ZM365.393 351.539C354.199 351.539 341.651 348.6 327.704 342.569L325.322 348.076C339.791 354.333 353.162 357.539 365.393 357.539V351.539ZM327.672 342.556C313.595 336.658 296.414 328.167 276.113 317.059L273.233 322.322C293.635 333.486 311.015 342.083 325.354 348.09L327.672 342.556ZM276.113 317.059C255.776 305.931 241.742 298.666 234.112 295.341L231.714 300.841C239.06 304.043 252.866 311.178 273.233 322.322L276.113 317.059ZM230.647 296.125C219.457 309.021 208.448 318.782 197.635 325.494L200.799 330.592C212.258 323.479 223.712 313.272 235.179 300.057L230.647 296.125ZM197.583 325.526C187.182 332.278 174.996 335.699 160.913 335.699V341.699C176.014 341.699 189.364 338.015 200.85 330.559L197.583 325.526ZM160.913 335.699C153.789 335.699 146.51 333.189 139.029 327.897L135.565 332.796C143.828 338.64 152.292 341.699 160.913 341.699V335.699ZM139.029 327.897C131.698 322.712 128.489 317.003 128.489 310.763H122.489C122.489 319.499 127.151 326.845 135.565 332.796L139.029 327.897ZM128.489 310.763C128.489 306.008 129.669 301.966 131.95 298.524C134.243 295.063 137.762 292.041 142.69 289.532L139.968 284.185C134.336 287.052 129.935 290.702 126.948 295.209C123.949 299.736 122.489 304.957 122.489 310.763H128.489ZM142.719 289.517C150.651 285.371 160.232 283.235 171.569 283.235V277.235C159.482 277.235 148.903 279.514 139.939 284.2L142.719 289.517ZM171.569 283.235C182.853 283.235 197.31 285.926 215.028 291.451L216.814 285.723C198.82 280.111 183.709 277.235 171.569 277.235V283.235ZM218.335 290.368C224.401 282.15 230.717 271.838 237.29 259.466L231.992 256.651C225.508 268.855 219.345 278.895 213.507 286.805L218.335 290.368ZM234.217 255.089C233.096 255.249 231.164 255.347 228.305 255.347V261.347C231.206 261.347 233.498 261.252 235.065 261.028L234.217 255.089ZM228.305 255.347C208.409 255.347 194.024 251.801 184.681 245.172C175.527 238.677 170.825 228.942 170.825 215.435H164.825C164.825 230.535 170.203 242.256 181.209 250.065C192.026 257.74 207.881 261.347 228.305 261.347V255.347ZM170.825 215.435C170.825 201.621 178.04 190.614 193.434 182.367L190.6 177.078C173.738 186.112 164.825 198.912 164.825 215.435H170.825ZM193.817 182.123C194.066 181.936 194.218 181.858 194.279 181.832C194.338 181.807 194.245 181.859 194.033 181.859V175.859C192.501 175.859 191.189 176.593 190.217 177.323L193.817 182.123ZM194.033 181.859C194.128 181.859 193.653 181.892 193.097 181.475C192.79 181.244 192.535 180.93 192.371 180.563C192.216 180.213 192.185 179.909 192.185 179.723H198.185C198.185 178.703 197.799 177.501 196.697 176.675C195.757 175.969 194.705 175.859 194.033 175.859V181.859ZM192.185 179.723C192.185 179.644 192.207 179.034 192.776 178.465L197.018 182.708C197.971 181.755 198.185 180.569 198.185 179.723H192.185ZM193.868 177.769C187.319 180.159 182.216 183.93 178.781 189.165C175.359 194.379 173.753 200.8 173.753 208.235H179.753C179.753 201.654 181.171 196.458 183.797 192.457C186.41 188.475 190.378 185.43 195.926 183.405L193.868 177.769ZM173.753 208.235C173.753 223.253 181.149 235.363 195.291 244.454L198.535 239.407C185.797 231.218 179.753 220.865 179.753 208.235H173.753ZM195.278 244.446C207.323 252.275 221.233 256.252 236.907 256.45L236.983 250.451C222.321 250.265 209.543 246.562 198.548 239.415L195.278 244.446ZM239.588 254.869C243.858 246.911 251.188 231.765 261.553 209.501L256.113 206.969C245.742 229.248 238.479 244.246 234.301 252.032L239.588 254.869ZM261.553 209.501C271.903 187.266 280.56 171.022 287.53 160.661L282.552 157.312C275.313 168.072 266.498 184.659 256.113 206.969L261.553 209.501ZM287.534 160.655C304.016 136.028 321.082 124.547 338.609 124.547V118.547C318.12 118.547 299.474 132.026 282.548 157.318L287.534 160.655ZM338.609 124.547C339.597 124.547 340.064 124.621 340.196 124.657C340.271 124.677 340.011 124.626 339.679 124.355C339.494 124.203 339.258 123.959 339.07 123.6C338.875 123.228 338.777 122.817 338.777 122.411H344.777C344.777 121.197 344.164 120.272 343.479 119.711C342.883 119.223 342.227 118.992 341.774 118.868C340.85 118.616 339.733 118.547 338.609 118.547V124.547ZM338.777 122.411C338.777 122.004 338.875 121.593 339.07 121.221C339.258 120.863 339.494 120.619 339.679 120.467C340.011 120.195 340.271 120.144 340.196 120.164C340.064 120.2 339.597 120.275 338.609 120.275V126.275C339.733 126.275 340.85 126.205 341.774 125.953C342.227 125.829 342.883 125.598 343.479 125.11C344.164 124.549 344.777 123.624 344.777 122.411H338.777ZM338.609 120.275C318.802 120.275 300.641 134.249 283.956 160.246L289.006 163.487C305.345 138.028 321.935 126.275 338.609 126.275V120.275ZM283.934 160.282C278.452 169.092 270.32 185.083 259.57 208.118L265.007 210.655C275.762 187.611 283.758 171.921 289.028 163.452L283.934 160.282ZM259.574 208.109C248.815 230.974 241.742 245.594 238.326 252.047L243.628 254.854C247.124 248.252 254.259 233.495 265.003 210.664L259.574 208.109ZM240.977 256.451C247.309 256.451 253.729 255.857 260.234 254.674L259.16 248.771C252.993 249.892 246.933 250.451 240.977 250.451V256.451ZM261.955 253.698C262.941 252.571 264.139 250.36 265.494 247.556C266.917 244.611 268.692 240.623 270.812 235.612L265.286 233.274C263.182 238.246 261.452 242.13 260.092 244.945C258.663 247.901 257.797 249.338 257.439 249.747L261.955 253.698ZM270.86 235.49C274.522 225.662 276.879 219.638 277.973 217.268L272.525 214.753C271.315 217.375 268.872 223.639 265.238 233.395L270.86 235.49ZM277.997 217.213C291.365 186.659 305.398 163.983 320.021 148.985C334.609 134.023 349.624 126.851 365.105 126.851V120.851C347.562 120.851 331.089 129.039 315.725 144.796C300.396 160.519 286.013 183.922 272.5 214.808L277.997 217.213ZM365.105 126.851C371.055 126.851 375.572 128.849 378.975 132.738L383.491 128.787C378.829 123.46 372.595 120.851 365.105 120.851V126.851ZM378.975 132.738C382.453 136.713 384.281 141.83 384.281 148.331H390.281C390.281 140.623 388.077 134.028 383.491 128.787L378.975 132.738ZM384.281 148.331C384.281 161.482 377.087 175.49 361.721 190.385C346.376 205.259 323.198 220.7 292.025 236.669L294.761 242.009C326.18 225.913 349.946 210.154 365.897 194.693C381.827 179.252 390.281 163.787 390.281 148.331H384.281ZM292.001 236.681C283.917 240.916 278.645 243.547 276.083 244.645L278.447 250.16C281.261 248.954 286.741 246.21 294.785 241.996L292.001 236.681ZM276.188 244.603C273.691 245.563 271.743 246.411 270.537 247.134L273.624 252.279C274.338 251.851 275.847 251.162 278.342 250.203L276.188 244.603ZM270.739 247.023C269.286 247.75 266.381 249.064 261.957 250.987L264.349 256.49C268.757 254.574 271.804 253.199 273.423 252.39L270.739 247.023ZM260.548 252.25C259.061 254.853 255.366 260.731 249.401 269.967L254.441 273.222C260.38 264.026 264.173 258 265.758 255.227L260.548 252.25ZM249.392 269.981C243.658 278.964 238.518 286.481 233.969 292.547L238.769 296.147C243.436 289.924 248.664 282.274 254.45 273.209L249.392 269.981ZM235.281 297.142L309.297 325.942L311.473 320.351L237.457 291.551L235.281 297.142ZM309.32 325.951C339.794 337.524 364.958 343.427 384.689 343.427V337.427C366.02 337.427 341.647 331.809 311.45 320.342L309.32 325.951ZM384.689 343.427C394.569 343.427 402.461 342.05 407.979 338.935C413.75 335.679 416.777 330.588 416.777 324.011H410.777C410.777 328.377 408.956 331.494 405.03 333.71C400.853 336.067 394.201 337.427 384.689 337.427V343.427ZM416.777 324.011C416.777 316.049 413.149 306.913 406.496 296.737L401.474 300.02C407.877 309.813 410.777 317.764 410.777 324.011H416.777ZM402.421 300.938C405.282 302.687 407.821 305.56 409.942 309.8L415.308 307.117C412.82 302.141 409.6 298.294 405.549 295.819L402.421 300.938ZM410.052 310.002C412.757 314.509 413.945 318.39 413.945 321.707H419.945C419.945 316.959 418.253 312.008 415.197 306.915L410.052 310.002ZM387.113 144.299C387.113 141.774 386.594 139.422 385.432 137.356C384.264 135.279 382.538 133.656 380.386 132.46L377.472 137.705C378.776 138.429 379.642 139.302 380.202 140.297C380.768 141.303 381.113 142.6 381.113 144.299H387.113ZM380.45 132.497C376.634 130.252 372.148 129.203 367.121 129.203V135.203C371.31 135.203 374.695 136.073 377.408 137.668L380.45 132.497ZM367.121 129.203C355.123 129.203 342.333 136.784 328.829 150.628C315.239 164.561 300.455 185.32 284.465 212.773L289.649 215.793C305.531 188.526 320.027 168.244 333.124 154.817C346.309 141.301 357.615 135.203 367.121 135.203V129.203ZM284.466 212.771C275.061 228.893 267.983 240.656 263.219 248.088L268.271 251.326C273.106 243.782 280.237 231.928 289.648 215.794L284.466 212.771ZM266.737 252.538C285.853 245.837 309.598 230.889 337.905 207.974L334.129 203.311C305.987 226.092 282.884 240.52 264.753 246.876L266.737 252.538ZM337.903 207.976C354.021 194.946 366.238 183.192 374.45 172.718C382.606 162.314 387.113 152.796 387.113 144.299H381.113C381.113 150.777 377.604 158.971 369.728 169.016C361.908 178.989 350.077 190.419 334.131 203.31L337.903 207.976ZM164.657 319.283C163.385 319.283 162.717 319.184 162.457 319.11C162.322 319.071 162.534 319.104 162.829 319.357C162.996 319.499 163.205 319.728 163.371 320.059C163.542 320.401 163.625 320.772 163.625 321.131H157.625C157.625 322.337 158.204 323.295 158.925 323.912C159.556 324.454 160.272 324.726 160.809 324.879C161.893 325.189 163.241 325.283 164.657 325.283V319.283ZM163.625 321.131C163.625 321.682 163.453 322.189 163.184 322.592C162.936 322.964 162.657 323.175 162.499 323.276C162.22 323.455 162.062 323.459 162.261 323.416C162.614 323.341 163.364 323.267 164.657 323.267V317.267C163.262 317.267 161.996 317.337 161.004 317.549C160.532 317.65 159.869 317.834 159.255 318.229C158.593 318.654 157.625 319.597 157.625 321.131H163.625ZM164.657 323.267C183.771 323.267 200.975 312.738 216.288 292.713L211.522 289.068C196.883 308.212 181.255 317.267 164.657 317.267V323.267ZM214.835 288.038C197.082 282.25 182.897 279.251 172.433 279.251V285.251C181.937 285.251 195.4 288.012 212.975 293.743L214.835 288.038ZM172.433 279.251C162.215 279.251 152.478 281.357 143.251 285.57L145.743 291.028C154.18 287.176 163.067 285.251 172.433 285.251V279.251ZM143.251 285.57C138.523 287.728 134.756 290.474 132.166 293.908C129.546 297.382 128.249 301.408 128.249 305.867H134.249C134.249 302.646 135.16 299.903 136.956 297.521C138.782 295.099 141.639 292.901 145.743 291.028L143.251 285.57ZM128.249 305.867C128.249 314.908 132.645 322.133 140.862 327.4L144.1 322.349C137.341 318.016 134.249 312.569 134.249 305.867H128.249ZM140.745 327.321C147.323 331.99 155.559 334.211 165.233 334.211V328.211C156.475 328.211 149.543 326.207 144.217 322.428L140.745 327.321ZM165.233 334.211C175.161 334.211 187.288 330.308 201.466 322.928L198.696 317.606C184.842 324.817 173.737 328.211 165.233 328.211V334.211ZM201.466 322.928C215.678 315.53 226.035 307.582 232.186 298.97L227.304 295.483C221.935 303 212.515 310.412 198.696 317.606L201.466 322.928ZM231.367 294.703C228.358 292.768 223.847 290.85 218.022 288.909L216.124 294.601C221.819 296.499 225.756 298.229 228.123 299.75L231.367 294.703ZM214.7 289.919C199.316 309.806 182.634 319.283 164.657 319.283V325.283C185.079 325.283 203.342 314.408 219.446 293.59L214.7 289.919ZM257.301 252.779C248.274 253.931 242.039 254.589 238.515 254.775L238.831 260.766C242.603 260.568 249.04 259.882 258.061 258.73L257.301 252.779ZM236.046 256.321C229.949 267.373 223.474 277.846 216.622 287.743L221.555 291.158C228.528 281.087 235.109 270.44 241.3 259.22L236.046 256.321ZM217.975 292.236C220.065 293.072 224.542 294.458 231.225 296.367L232.873 290.598C226.115 288.667 221.953 287.365 220.203 286.665L217.975 292.236ZM234.17 295.604C235.76 294.014 238.743 289.92 242.954 283.721C247.249 277.4 253.001 268.614 260.207 257.374L255.155 254.136C247.961 265.359 242.241 274.093 237.991 280.349C233.659 286.725 231.025 290.264 229.928 291.361L234.17 295.604Z" fill="black"/>
</g>
</g>
</svg>
